<svg xmlns="http://www.w3.org/2000/svg" version="1.1" xmlns:xlink="http://www.w3.org/1999/xlink" xmlns:svgjs="http://svgjs.dev/svgjs" width="2000" height="1914" viewBox="0 0 2000 1914"><g transform="matrix(1,0,0,1,-0.05870320360259029,0.7763297288636295)"><svg viewBox="0 0 258 247" data-background-color="#ffbe79" preserveAspectRatio="xMidYMid meet" height="1914" width="2000" xmlns="http://www.w3.org/2000/svg" xmlns:xlink="http://www.w3.org/1999/xlink"><g id="tight-bounds" transform="matrix(1,0,0,1,0.007931285499722662,-0.09997365579206985)"><svg viewBox="0 0 257.98431654986524 247.2" height="247.2" width="257.98431654986524"><g><svg viewBox="0 0 257.98431654986524 247.2" height="247.2" width="257.98431654986524"><g><svg viewBox="0 0 257.98431654986524 247.2" height="247.2" width="257.98431654986524"><g id="textblocktransform"><svg viewBox="0 0 257.98431654986524 247.2" height="247.2" width="257.98431654986524" id="textblock"><g><svg viewBox="0 0 257.98431654986524 247.2" height="247.2" width="257.98431654986524"><path d="M257.38 53.02C256.167 27.36 252.711 20.227 252.711 20.227 242.099-6.202 228.854-0.506 216.956 3.292 195.95 3.446 175.029 9.091 154.071 12.119 110.081 12.581 65.715 4.986 21.944 23.717 17.832 29.464-4.266 24.846 0.731 56.304 2.041 69.39 6.82 83.913 6.674 95.922 7.329 98.026 8.239 93.202 8.627 96.23 9.985 104.39 12.205 100.541 14.024 105.365 11.489 118.246 13.308 128.971 15.043 140.21 11.986 143.135 8.069 141.749 6.31 151.449 6.128 158.479 5.146 157.145 4.067 156.837 3.278 156.632 1.689 157.402 1.956 159.608 2.866 167.152-1.039 171.514 1.411 178.904-0.275 186.91 2.575 193.838 2.187 202.511 2.138 204.255 2.405 205.744 2.83 206.154 4.709 208.361 1.968 212.672 2.26 217.342 21.544 249.262 42.465 227.195 62.222 241.872 67.353 231.608 63.496 245.516 65.545 243.36 67.146 240.846 68.311 251.263 70.118 245.362 70.397 243.668 69.972 239.665 70.967 240.435 71.488 240.846 71.949 240.743 72.022 238.382 72.131 234.841 71.173 237.048 70.918 235.201 73.672 225.861 72.992 248.081 75.576 247.158 75.454 244.438 74.702 240.538 76.243 241.051 77.771 237.151 77.819 233.918 79.178 242.693 79.226 244.592 79.469 245.926 79.857 246.85 84.102 237.305 88.323 250.237 92.774 245.926 95.503 241.205 98.122 248.492 100.888 246.696 101.858 245.259 102.84 242.693 103.774 247.004 115.211 247.928 127.4 244.079 138.243 247.158 167.218 241.41 198.182 249.518 228.733 241.923 235.937 238.998 243.421 234.841 250.443 231.506 250.443 231.506 256.131 222.371 256.131 181.316S257.344 145.393 257.526 112.703C257.708 80.013 258.557 78.679 257.344 53.02Z" opacity="1" fill="#374151" data-fill-palette-color="tertiary"></path><g transform="matrix(1,0,0,1,55.76832,26.230666666666668)"><svg width="146.44767654986524" viewBox="2.1500000953674316 -37.099998474121094 27.899999618530273 37.099998474121094" height="194.73866666666666" data-palette-color="#ffbe79"><path d="M2.9 0L2.9 0Q2.5 0 2.33-0.15 2.15-0.3 2.15-0.7L2.15-0.7 2.15-2.1Q2.15-2.55 2.27-2.83 2.4-3.1 2.8-3.65L2.8-3.65 21.5-32Q21.8-32.5 21.2-32.5L21.2-32.5 3.8-32.5Q3.4-32.5 3.28-32.68 3.15-32.85 3.15-33.2L3.15-33.2 3.15-36.5Q3.15-37.1 3.65-37.1L3.65-37.1 29.5-37.1Q30.05-37.1 30.05-36.5L30.05-36.5 30.05-34.95Q30.05-34.6 29.95-34.38 29.85-34.15 29.55-33.75L29.55-33.75 10.5-5.1Q10.35-4.85 10.48-4.73 10.6-4.6 10.8-4.6L10.8-4.6 29.3-4.6Q29.95-4.6 29.95-4.05L29.95-4.05 29.95-0.65Q29.95-0.4 29.8-0.2 29.65 0 29.25 0L29.25 0 2.9 0Z" opacity="1" transform="matrix(1,0,0,1,0,0)" fill="#ffbe79" class="wordmark-text-0" data-fill-palette-color="quaternary" id="text-0"></path></svg></g></svg></g></svg></g></svg></g><g></g></svg></g><defs></defs></svg><rect width="257.98431654986524" height="247.2" fill="none" stroke="none" visibility="hidden"></rect></g></svg></g></svg>